<svg width="36" height="36" viewBox="0 0 36 36" fill="none" xmlns="http://www.w3.org/2000/svg">
<path d="M32.1257 25.8817V20.5604C32.1257 19.8788 31.8549 19.2251 31.3729 18.7431C30.8909 18.2611 30.2372 17.9904 29.5556 17.9904H19.2754V12.8503H21.8455C22.5269 12.8496 23.1802 12.5786 23.662 12.0968C24.1438 11.6149 24.4148 10.9616 24.4155 10.2802V2.57005C24.4148 1.88864 24.1438 1.23533 23.662 0.753503C23.1802 0.271672 22.5269 0.000680392 21.8455 0H14.1353C13.4539 0.000680392 12.8006 0.271672 12.3188 0.753503C11.8369 1.23533 11.5659 1.88864 11.5653 2.57005V10.2802C11.5659 10.9616 11.8369 11.6149 12.3188 12.0968C12.8006 12.5786 13.4539 12.8496 14.1353 12.8503H16.7054V17.9904H6.42515C5.74353 17.9904 5.08982 18.2611 4.60784 18.7431C4.12586 19.2251 3.85509 19.8788 3.85509 20.5604V25.883C2.64375 26.1958 1.58806 26.9396 0.885908 27.975C0.183753 29.0105 -0.116659 30.2665 0.0409807 31.5076C0.198621 32.7487 0.80349 33.8897 1.74221 34.7167C2.68093 35.5437 3.88905 36 5.14012 36C6.39119 36 7.59931 35.5437 8.53803 34.7167C9.47675 33.8897 10.0816 32.7487 10.2393 31.5076C10.3969 30.2665 10.0965 29.0105 9.39433 27.975C8.69218 26.9396 7.63649 26.1958 6.42515 25.883V20.5604H16.7054V25.883C15.494 26.1958 14.4383 26.9396 13.7362 27.975C13.034 29.0105 12.7336 30.2665 12.8912 31.5076C13.0489 32.7487 13.6538 33.8897 14.5925 34.7167C15.5312 35.5437 16.7393 36 17.9904 36C19.2415 36 20.4496 35.5437 21.3883 34.7167C22.327 33.8897 22.9319 32.7487 23.0895 31.5076C23.2472 30.2665 22.9468 29.0105 22.2446 27.975C21.5424 26.9396 20.4868 26.1958 19.2754 25.883V20.5604H29.5556V25.8817C28.3443 26.1945 27.2886 26.9383 26.5864 27.9738C25.8843 29.0092 25.5839 30.2652 25.7415 31.5063C25.8992 32.7474 26.504 33.8884 27.4427 34.7154C28.3815 35.5424 29.5896 35.9987 30.8407 35.9987C32.0917 35.9987 33.2998 35.5424 34.2386 34.7154C35.1773 33.8884 35.7822 32.7474 35.9398 31.5063C36.0974 30.2652 35.797 29.0092 35.0949 27.9738C34.3927 26.9383 33.337 26.1945 32.1257 25.8817ZM14.1353 2.57005H21.8455L21.8468 10.2802H14.1353V2.57005ZM7.71017 30.8406C7.71017 31.3489 7.55944 31.8458 7.27704 32.2685C6.99464 32.6911 6.59325 33.0205 6.12364 33.2151C5.65402 33.4096 5.13727 33.4605 4.63873 33.3613C4.14018 33.2621 3.68225 33.0174 3.32282 32.6579C2.96339 32.2985 2.71861 31.8406 2.61945 31.342C2.52028 30.8435 2.57118 30.3267 2.7657 29.8571C2.96022 29.3875 3.28963 28.9861 3.71227 28.7037C4.13492 28.4213 4.63181 28.2706 5.14012 28.2706C5.82153 28.2713 6.47484 28.5423 6.95667 29.0241C7.4385 29.5059 7.70949 30.1592 7.71017 30.8406ZM20.5604 30.8406C20.5604 31.3489 20.4097 31.8458 20.1273 32.2685C19.8449 32.6911 19.4435 33.0205 18.9739 33.2151C18.5043 33.4096 17.9875 33.4605 17.489 33.3613C16.9905 33.2621 16.5325 33.0174 16.1731 32.6579C15.8137 32.2985 15.5689 31.8406 15.4697 31.342C15.3705 30.8435 15.4214 30.3267 15.616 29.8571C15.8105 29.3875 16.1399 28.9861 16.5625 28.7037C16.9852 28.4213 17.4821 28.2706 17.9904 28.2706C18.6717 28.2716 19.3248 28.5427 19.8066 29.0245C20.2883 29.5062 20.5594 30.1593 20.5604 30.8406ZM30.8407 33.4107C30.3323 33.4107 29.8354 33.26 29.4128 32.9776C28.9902 32.6952 28.6608 32.2938 28.4662 31.8242C28.2717 31.3545 28.2208 30.8378 28.32 30.3392C28.4191 29.8407 28.6639 29.3828 29.0233 29.0233C29.3828 28.6639 29.8407 28.4191 30.3393 28.32C30.8378 28.2208 31.3546 28.2717 31.8242 28.4662C32.2938 28.6607 32.6952 28.9901 32.9776 29.4128C33.26 29.8354 33.4107 30.3323 33.4107 30.8406C33.41 31.522 33.139 32.1754 32.6572 32.6572C32.1754 33.139 31.5221 33.41 30.8407 33.4107Z" fill="#021527"/>
</svg>
