<svg width="54" height="51" viewBox="0 0 54 51" fill="none" xmlns="http://www.w3.org/2000/svg">
<path d="M54 25.4878L48.0109 18.7138L48.8455 9.74677L39.9845 7.74869L35.3455 0L27 3.55757L18.6545 0L14.0155 7.74869L5.15455 9.72241L5.98909 18.6894L0 25.4878L5.98909 32.2618L5.15455 41.2532L14.0155 43.2513L18.6545 51L27 47.4181L35.3455 50.9756L39.9845 43.227L48.8455 41.2289L48.0109 32.2618L54 25.4878ZM42.93 30.6292L43.5682 37.4276L36.8427 38.9384L33.3327 44.8108L27 42.1061L20.6673 44.8108L17.1573 38.9384L10.4318 37.4276L11.07 30.6049L6.52909 25.4878L11.07 20.322L10.4318 13.548L17.1573 12.0616L20.6673 6.1892L27 8.86957L33.3327 6.16484L36.8427 12.0373L43.5682 13.548L42.93 20.3464L47.4709 25.4878L42.93 30.6292ZM24.5455 32.7979H29.4545V37.6713H24.5455V32.7979ZM24.5455 13.3043H29.4545V27.9245H24.5455V13.3043Z" fill="white"/>
</svg>
