<svg width="51" height="51" viewBox="0 0 51 51" fill="none" xmlns="http://www.w3.org/2000/svg">
<path d="M18.8993 35.0907L25.5 31.0852L32.1007 35.0907L30.3518 27.5874L36.219 22.51L28.49 21.8894L25.5 14.781L22.51 21.8894L14.781 22.51L20.6482 27.5874L18.8993 35.0907ZM25.5 51L17.9403 43.5531H7.4469V33.0597L0 25.5L7.4469 17.9403V7.4469H17.9403L25.5 0L33.0597 7.4469H43.5531V17.9403L51 25.5L43.5531 33.0597V43.5531H33.0597L25.5 51ZM25.5 44.6814L31.1416 39.0398H39.0398V31.1416L44.6814 25.5L39.0398 19.8584V11.9602H31.1416L25.5 6.31858L19.8584 11.9602H11.9602V19.8584L6.31858 25.5L11.9602 31.1416V39.0398H19.8584L25.5 44.6814Z" fill="white"/>
</svg>
