<svg width="36" height="36" viewBox="0 0 36 36" fill="none" xmlns="http://www.w3.org/2000/svg">
<path d="M13.3407 24.7699L18 21.9425L22.6593 24.7699L21.4248 19.4735L25.5664 15.8894L20.1106 15.4513L18 10.4336L15.8894 15.4513L10.4336 15.8894L14.5752 19.4735L13.3407 24.7699ZM18 36L12.6637 30.7434H5.25664V23.3363L0 18L5.25664 12.6637V5.25664H12.6637L18 0L23.3363 5.25664H30.7434V12.6637L36 18L30.7434 23.3363V30.7434H23.3363L18 36ZM18 31.5398L21.9823 27.5575H27.5575V21.9823L31.5398 18L27.5575 14.0177V8.44248H21.9823L18 4.46018L14.0177 8.44248H8.44248V14.0177L4.46018 18L8.44248 21.9823V27.5575H14.0177L18 31.5398Z" fill="#021527"/>
</svg>
