<svg width="51" height="51" viewBox="0 0 51 51" fill="none" xmlns="http://www.w3.org/2000/svg">
<path d="M18.8993 35.0907L25.5 31.0852L32.1007 35.0907L30.3518 27.5874L36.219 22.51L28.49 21.8894L25.5 14.781L22.51 21.8894L14.781 22.51L20.6482 27.5874L18.8993 35.0907ZM25.5 51L17.9403 43.5531H7.4469V33.0597L0 25.5L7.4469 17.9403V7.4469H17.9403L25.5 0L33.0597 7.4469H43.5531V17.9403L51 25.5L43.5531 33.0597V43.5531H33.0597L25.5 51ZM25.5 44.6814L31.1416 39.0398H39.0398V31.1416L44.6814 25.5L39.0398 19.8584V11.9602H31.1416L25.5 6.31858L19.8584 11.9602H11.9602V19.8584L6.31858 25.5L11.9602 31.1416V39.0398H19.8584L25.5 44.6814Z" fill="white"/>
<rect x="14.96" y="13.6" width="22.44" height="23.12" fill="#242E8F"/>
<path d="M18.836 33.32C18.3311 33.32 17.899 33.1426 17.5398 32.7878C17.1805 32.433 17.0006 32.006 17 31.5067V26.9734C17 26.4747 17.1799 26.048 17.5398 25.6931C17.8996 25.3383 18.3317 25.1606 18.836 25.16H23.426C23.426 25.9156 23.6937 26.5578 24.2292 27.0867C24.7647 27.6156 25.415 27.88 26.18 27.88C26.945 27.88 27.5952 27.6156 28.1307 27.0867C28.6662 26.5578 28.934 25.9156 28.934 25.16H33.524C34.0289 25.16 34.4613 25.3377 34.8211 25.6931C35.181 26.0486 35.3606 26.4753 35.36 26.9734V31.5067C35.36 32.0054 35.1804 32.4324 34.8211 32.7878C34.4619 33.1432 34.0295 33.3206 33.524 33.32H18.836ZM31.3208 24.072L30.0356 22.8027L33.2945 19.584L34.5797 20.8534L31.3208 24.072ZM21.0392 24.072L17.7803 20.8534L19.0655 19.584L22.3244 22.8027L21.0392 24.072ZM25.262 21.5334V17H27.098V21.5334H25.262Z" fill="white"/>
</svg>
