<svg width="36" height="36" viewBox="0 0 36 36" fill="none" xmlns="http://www.w3.org/2000/svg">
<path d="M36 14.24H22.4391L27.9195 8.6C22.4591 3.2 13.6185 3 8.15812 8.4C6.86083 9.68118 5.83083 11.2072 5.12783 12.8894C4.42484 14.5717 4.06284 16.3768 4.06284 18.2C4.06284 20.0232 4.42484 21.8283 5.12783 23.5106C5.83083 25.1928 6.86083 26.7188 8.15812 28C13.6185 33.4 22.4591 33.4 27.9195 28C30.6396 25.3 31.9997 22.16 31.9997 18.2H36C36 22.16 34.2399 27.3 30.7196 30.78C23.6992 37.74 12.2984 37.74 5.27792 30.78C-1.72255 23.84 -1.78255 12.56 5.23792 5.62C8.60397 2.28549 13.1506 0.414797 17.8888 0.414797C22.627 0.414797 27.1736 2.28549 30.5396 5.62L36 0V14.24ZM18.9988 10V18.5L25.9993 22.66L24.5592 25.08L15.9986 20V10H18.9988Z" fill="#021527"/>
</svg>
